PathFileType	4	(X/Y/Z)	51_2_100_p1_0-435_filt_butterworth.trc
DataRate	CameraRate	NumFrames	NumMarkers	Units	OrigDataRate	OrigDataStartFrame	OrigNumFrames
51.0	51.0	5	27	m	51.0	0	435
Frame#	Time	RHip			RKnee			RAnkle			RBigToe			RSmallToe			RHeel			LHip			LKnee			LAnkle			LBigToe			LSmallToe			LHeel			Neck			Head			Nose			RShoulder			RElbow			RWrist			RThumb			RIndex			RPinky			LShoulder			LElbow			LWrist			LThumb			LIndex			LPinky			
		X1	Y1	Z1	X2	Y2	Z2	X3	Y3	Z3	X4	Y4	Z4	X5	Y5	Z5	X6	Y6	Z6	X7	Y7	Z7	X8	Y8	Z8	X9	Y9	Z9	X10	Y10	Z10	X11	Y11	Z11	X12	Y12	Z12	X13	Y13	Z13	X14	Y14	Z14	X15	Y15	Z15	X16	Y16	Z16	X17	Y17	Z17	X18	Y18	Z18	X19	Y19	Z19	X20	Y20	Z20	X21	Y21	Z21	X22	Y22	Z22	X23	Y23	Z23	X24	Y24	Z24	X25	Y25	Z25	X26	Y26	Z26	X27	Y27	Z27	
0	0.0	0.07588047354251024	0.5346018081492274	0.6052584595186006	0.07074191547812307	0.6010540698100181	1.0439622128082549	0.04796368698862123	0.7122625179859224	1.4824369477237578	0.0443290371705339	0.4872957677510773	1.4864747986909714	0.10685193877954413	0.5023778921406612	1.4972097329666165	0.029205736479363968	0.7850224899067384	1.5419695104079159	-0.116409589103791	0.5500651784431083	0.6373944193696242	-0.10556918842105156	0.5935095794038404	1.0431982491483698	-0.11638369104370508	0.644123174525647	1.4401705035495715	-0.09964439969664012	0.4809721165286571	1.4861077250302885	-0.14856868031450343	0.49819214719254373	1.4871866087603822	-0.1100587997628794	0.7130303285909083	1.5235834672607587	-0.006154531999991719	0.49858746489880534	0.08901032116474183	0.010788978922276251	0.40065109342584015	-0.13268964608928174	0.012073749177031762	0.3709675680108493	-0.014244380720344996	0.14143347346729745	0.4638616503939414	0.16553828259274556	0.16445469403848098	0.4752608555111498	0.4402528233451004	0.051349706529447633	0.4108583075592436	0.6148095093181267	-0.011206257778263565	0.3946989744790881	0.6938268707915329	-0.03135118183700913	0.43788578838139053	0.734665206369977	-0.023502877995860354	0.4093359732542882	0.7365214679919748	-0.1513666997682622	0.5098871783427026	0.17736908835285686	-0.1749464987553502	0.4334590324421228	0.42749547664255416	-0.047236054065378355	0.3949055364733024	0.5878378113143687	0.030907788201514796	0.3683809126701943	0.6509587381715762	0.04093117081897511	0.39768037087400276	0.6756928584947887	0.010821949934874535	0.36784562310664043	0.677504901088511
1	0.0196078431372549	0.07722262600591	0.5392560168971154	0.6053183572897459	0.06968181601331595	0.5994426506333074	1.045692281775173	0.04765096155582518	0.711080904215253	1.480412018180104	0.0452746270726517	0.4914278314640605	1.4884502013552598	0.10511858681458942	0.5056337083011611	1.4950715065777374	0.030021885793169903	0.7838436804608824	1.5380966885524505	-0.118441124159142	0.5391602295476383	0.6307694782539968	-0.10579727957435833	0.5939157889884736	1.0434669112218773	-0.11710909441132378	0.644425049565216	1.4432305369746898	-0.09796338546254696	0.4762240419383371	1.4836375032884752	-0.15115788608498423	0.5025343627711092	1.4909949077140354	-0.1108613128754725	0.7117577693657088	1.517147843031172	-0.006175303633762326	0.4986384587344338	0.08906364867847558	0.01212173583053084	0.4012323162856944	-0.13273052386625517	0.012084689383055597	0.3709608565683986	-0.014212974267345066	0.13876516947184522	0.4627658180128019	0.16682661153591255	0.16447247047524566	0.475301440198529	0.44032233973708357	0.04812254511232884	0.4199057098152155	0.6183768260028888	-0.01551399489054114	0.40981172310025094	0.695739409541762	-0.030611287442771862	0.445752723263202	0.7393703663456929	-0.02461059420027482	0.42008844177076327	0.7423644852342308	-0.15127024697736846	0.5101659179285399	0.17737006365779392	-0.17635674242025945	0.4371576896860157	0.4266631495948931	-0.04890926508585818	0.39954185967827527	0.5889179211363684	0.030704596913978484	0.3759580177055865	0.6518868358635412	0.03623039220890652	0.398104662236225	0.6746061213861473	0.008001062020507814	0.3632978975984413	0.676566186242634
2	0.0392156862745098	0.07802993147561582	0.5422397933250299	0.6062303708312402	0.06780161240374409	0.5983308818039069	1.0466610586444498	0.047660945142034165	0.7109388293087311	1.480382674852959	0.045187224355398355	0.49106623360916435	1.4882786009510514	0.1045174894577871	0.5070347651765216	1.4949670029928337	0.03046113787413599	0.7832286867415521	1.5360758374688936	-0.11940799896880407	0.533841962624803	0.6289650551638403	-0.10589959454355459	0.5942375357766612	1.0435707241329437	-0.11751823963857709	0.6445874779060695	1.444856658072101	-0.09807676101470203	0.4764866477277591	1.483779278611867	-0.15227001715041544	0.5042401846161827	1.4928687329393222	-0.11128039919831798	0.7111429384587247	1.513887732808816	-0.006184106447883357	0.49864417968450364	0.0890828568095407	0.013525448648197352	0.4018249118763486	-0.13276896783056913	0.012096054409247844	0.3709436848347977	-0.014204384799888685	0.13836898365614972	0.46270055545708044	0.16681287716396775	0.16448910375605202	0.47531686330081646	0.44043214374504513	0.04656705342032262	0.424615844700034	0.619868146479408	-0.020434756069704962	0.4234049012977097	0.6977253077216343	-0.03151678160318252	0.4529266366223668	0.7403549431690958	-0.021439575535038478	0.42333332174834626	0.7437521127533477	-0.15120695972636064	0.510426850208246	0.17733457548655251	-0.17686646658443328	0.4387317882325753	0.4266682067136292	-0.049594236202180245	0.4015206808286522	0.5894204609801121	0.03096115520973104	0.3749571245115997	0.6522606301320989	0.03378552213406921	0.39786478168438055	0.6729645109596774	0.0057193451111860125	0.35842825112428506	0.675526793460729
3	0.0588235294117647	0.07856827195253724	0.5446362689180936	0.6090306513083821	0.06524561575545586	0.5994119113721794	1.0479940704889517	0.0478620958322798	0.7114628870911854	1.4815113409035217	0.04455705540456068	0.4883161248810275	1.4869659299530986	0.10527255734290386	0.5054068479545679	1.4961383138788213	0.030531694713479832	0.7831628490519507	1.5358050208473628	-0.11940344654000784	0.5335366950106063	0.6311312632363208	-0.10583827208488565	0.5943540444156674	1.0435622293757012	-0.11758998098312291	0.6446154562881639	1.4451726322180314	-0.0991385267390492	0.4795139071529342	1.4853523473642891	-0.1514656322976527	0.5024129410412739	1.4926750356746554	-0.111324006791019	0.7111161221335056	1.5135159822217668	-0.006178098249534084	0.49858344494291673	0.08905393006364043	0.014480828960785369	0.40220806241921314	-0.13277884210505153	0.012109743261082755	0.370921854145139	-0.014227335504219982	0.13985586173610848	0.46346543382259986	0.16602807178066525	0.1644849324759935	0.47528960527466235	0.4405333081338745	0.04638020529160158	0.42543627535905015	0.6190973255780688	-0.025421849170241262	0.43270943071296836	0.6991169665493263	-0.034980080785344585	0.4568439761889546	0.7377671923839626	-0.016718081422448076	0.4199665756286758	0.7424734077758649	-0.15137013182979311	0.5093431257624498	0.17724540203299993	-0.17613359731984832	0.4374302667677452	0.4280117197739039	-0.04850790809629593	0.3986903042937483	0.588519286874896	0.03228726294436986	0.3689247058445245	0.6526063573119665	0.033299890158487486	0.39601816747624635	0.6718633360093759	0.005173330163327746	0.35499388052010217	0.6747619214642829
4	0.0784313725490196	0.07897056882568573	0.5466590283539775	0.6128856013418644	0.06283833045118033	0.6040106381915722	1.049784967828445	0.048000296878392516	0.7118780489159477	1.4822407036513612	0.0442229209614131	0.48680492229133604	1.486239081159725	0.10634662087507207	0.5026865611627822	1.49693128197091	0.030469623631258366	0.7833089810458383	1.5361195622374126	-0.11912009159890788	0.5345714490311531	0.6329841733633339	-0.10570362683959955	0.5941218727433204	1.0438814991217025	-0.11751409787563358	0.6446053311070856	1.4451396532157874	-0.09974436565884798	0.4813787802454135	1.4863089060187014	-0.15006397084375098	0.49952292585956903	1.4917755720091388	-0.11124547713063074	0.7111939146222566	1.51390489589909	-0.006160422959098448	0.4984784828528314	0.08898708977555958	0.014735633996620087	0.40228955828694307	-0.13276838033770527	0.012132168192942347	0.3709224030309679	-0.014264421241681938	0.14127594825128093	0.46416478621997104	0.16555000842051554	0.16442558505350846	0.4752503803065532	0.4403228208349265	0.04647751629795367	0.4249972694671009	0.6174789152534702	-0.02920478163531046	0.436239630153341	0.6984372890746114	-0.03962033122939696	0.4571208340905572	0.7347189542286099	-0.015520954059758575	0.4158703426821928	0.7411545466285926	-0.1519637792377336	0.5053108890253916	0.17711122893636802	-0.1750386424350005	0.4353952611043674	0.4300188561058847	-0.04604593498819084	0.3920554817361287	0.585985184213449	0.034345255127550586	0.36607110425645023	0.6528489500390955	0.03334728140319011	0.3918166245115599	0.6718329735707848	0.006236662924081183	0.354259814970386	0.6745506572927331
